<svg id="visual" viewBox="0 0 900 600" width="900" height="600" xmlns="http://www.w3.org/2000/svg" xmlns:xlink="http://www.w3.org/1999/xlink" version="1.1"><rect x="0" y="0" width="900" height="600" fill="#ffffff"></rect><defs><linearGradient id="grad1_0" x1="33.3%" y1="0%" x2="100%" y2="100%"><stop offset="20%" stop-color="#fa983c" stop-opacity="1"></stop><stop offset="80%" stop-color="#fa983c" stop-opacity="1"></stop></linearGradient></defs><defs><linearGradient id="grad1_1" x1="33.3%" y1="0%" x2="100%" y2="100%"><stop offset="20%" stop-color="#fa983c" stop-opacity="1"></stop><stop offset="80%" stop-color="#ffcb9e" stop-opacity="1"></stop></linearGradient></defs><defs><linearGradient id="grad1_2" x1="33.3%" y1="0%" x2="100%" y2="100%"><stop offset="20%" stop-color="#ffffff" stop-opacity="1"></stop><stop offset="80%" stop-color="#ffcb9e" stop-opacity="1"></stop></linearGradient></defs><defs><linearGradient id="grad2_0" x1="0%" y1="0%" x2="66.7%" y2="100%"><stop offset="20%" stop-color="#fa983c" stop-opacity="1"></stop><stop offset="80%" stop-color="#fa983c" stop-opacity="1"></stop></linearGradient></defs><defs><linearGradient id="grad2_1" x1="0%" y1="0%" x2="66.7%" y2="100%"><stop offset="20%" stop-color="#ffcb9e" stop-opacity="1"></stop><stop offset="80%" stop-color="#fa983c" stop-opacity="1"></stop></linearGradient></defs><defs><linearGradient id="grad2_2" x1="0%" y1="0%" x2="66.7%" y2="100%"><stop offset="20%" stop-color="#ffcb9e" stop-opacity="1"></stop><stop offset="80%" stop-color="#ffffff" stop-opacity="1"></stop></linearGradient></defs><g transform="translate(900, 0)"><path d="M0 486.7C-67.1 484.4 -134.2 482 -186.3 449.7C-238.4 417.4 -275.5 355 -301.2 301.2C-327 247.4 -341.4 202.2 -370.5 153.5C-399.5 104.7 -443.1 52.3 -486.7 0L0 0Z" fill="#ffe5ce"></path><path d="M0 324.5C-44.7 322.9 -89.5 321.4 -124.2 299.8C-158.9 278.2 -183.6 236.7 -200.8 200.8C-218 165 -227.6 134.8 -247 102.3C-266.3 69.8 -295.4 34.9 -324.5 0L0 0Z" fill="#ffb16e"></path><path d="M0 162.2C-22.4 161.5 -44.7 160.7 -62.1 149.9C-79.5 139.1 -91.8 118.3 -100.4 100.4C-109 82.5 -113.8 67.4 -123.5 51.2C-133.2 34.9 -147.7 17.4 -162.2 0L0 0Z" fill="#fa983c"></path></g><g transform="translate(0, 600)"><path d="M0 -486.7C72.1 -488.6 144.3 -490.4 186.3 -449.7C228.3 -409 240.1 -325.9 276.5 -276.5C312.9 -227.1 373.8 -211.5 413 -171.1C452.1 -130.6 469.4 -65.3 486.7 0L0 0Z" fill="#ffe5ce"></path><path d="M0 -324.5C48.1 -325.7 96.2 -326.9 124.2 -299.8C152.2 -272.7 160.1 -217.2 184.3 -184.3C208.6 -151.4 249.2 -141 275.3 -114C301.4 -87.1 313 -43.5 324.5 0L0 0Z" fill="#ffb16e"></path><path d="M0 -162.2C24 -162.9 48.1 -163.5 62.1 -149.9C76.1 -136.3 80 -108.6 92.2 -92.2C104.3 -75.7 124.6 -70.5 137.7 -57C150.7 -43.5 156.5 -21.8 162.2 0L0 0Z" fill="#fa983c"></path></g></svg>